<svg version="1.1" id="Layer_1" xmlns="http://www.w3.org/2000/svg" xmlns:xlink="http://www.w3.org/1999/xlink" x="0px" y="0px"
	 width="100%" viewBox="0 0 1000 1000" enable-background="new 0 0 1000 1000" xml:space="preserve">
<path fill="#AE0F35" opacity="1.000000" stroke="none" 
	d="
M586.000000,1001.000000 
	C390.666656,1001.000000 195.833328,1001.000000 1.000000,1001.000000 
	C1.000000,667.666687 1.000000,334.333344 1.000000,1.000000 
	C334.333344,1.000000 667.666687,1.000000 1001.000000,1.000000 
	C1001.000000,334.333344 1001.000000,667.666687 1001.000000,1001.000000 
	C862.833313,1001.000000 724.666687,1001.000000 586.000000,1001.000000 
M228.944977,709.512939 
	C228.666031,709.817810 228.387085,710.122681 227.755707,710.877319 
	C227.209961,710.998230 226.664215,711.119141 225.480011,710.662476 
	C222.049713,710.585632 218.619415,710.508789 214.511810,710.546692 
	C208.838913,706.878235 208.200195,701.038147 208.170273,695.136414 
	C208.066391,674.657104 208.124176,654.177063 208.120590,633.697266 
	C208.120163,631.249695 208.120514,628.802124 208.120514,626.254700 
	C200.903107,626.254700 194.203735,626.254700 187.338150,626.254700 
	C187.338150,651.059387 186.999130,675.514221 187.482529,699.952698 
	C187.720825,711.999817 193.913635,721.065735 205.756393,724.709534 
	C211.519714,726.482788 217.861328,727.104431 223.927032,727.033936 
	C244.219376,726.798035 255.642487,714.931213 255.674515,694.699890 
	C255.705353,675.219177 255.681442,655.738403 255.681564,636.257629 
	C255.681595,632.964966 255.681580,629.672302 255.681580,625.964783 
	C248.422165,625.964783 241.640961,625.964783 234.167984,626.323364 
	C233.778900,627.845459 233.056534,629.366394 233.051041,630.889893 
	C232.976318,651.601807 232.971130,672.314209 233.056366,693.026001 
	C233.063370,694.729675 233.851654,696.430115 234.461426,698.856201 
	C234.281113,699.573486 234.100784,700.290771 233.327911,701.173584 
	C233.249084,702.128906 233.170258,703.084167 233.115112,704.720398 
	C232.655869,705.485962 232.196625,706.251465 231.233124,707.221436 
	C231.023865,707.666626 230.814606,708.111877 230.258072,708.542786 
	C230.258072,708.542786 230.604095,708.510071 230.031067,708.624756 
	C229.830811,708.942139 229.630569,709.259521 229.308212,709.370117 
	C229.308212,709.370117 229.531754,709.282532 228.944977,709.512939 
M365.525299,725.683350 
	C366.016449,724.227051 366.928558,722.772705 366.935333,721.314148 
	C367.029297,701.090637 367.038910,680.866333 366.921478,660.643066 
	C366.912384,659.076355 365.798187,657.516113 364.244080,655.815857 
	C358.172729,655.815857 352.101379,655.815857 346.106384,655.815857 
	C346.106384,679.432007 346.106384,702.396423 346.106384,725.927490 
	C352.546631,725.927490 358.651245,725.927490 365.525299,725.683350 
M662.395203,854.422180 
	C662.582581,853.792236 662.932190,853.162659 662.933655,852.532288 
	C662.975891,834.561401 663.009094,816.590271 662.936829,798.619690 
	C662.932068,797.441772 662.076843,796.267334 660.888794,794.818237 
	C654.646667,794.818237 648.404541,794.818237 641.921082,794.818237 
	C641.921082,810.242737 641.928345,825.223816 641.913025,840.204895 
	C641.910828,842.368225 641.960815,844.550598 641.705872,846.690674 
	C641.194580,850.982727 639.168945,853.913147 634.357666,853.838684 
	C629.826355,853.768555 627.824097,850.987915 627.335754,846.894470 
	C627.060852,844.589905 627.094360,842.241516 627.091370,839.912781 
	C627.072327,824.950439 627.081665,809.988159 627.081665,795.091431 
	C620.242859,795.091431 613.807739,795.091431 606.736633,795.634277 
	C606.509827,796.245911 606.086609,796.857056 606.084839,797.469299 
	C606.034729,815.105225 605.990417,832.741455 606.086975,850.376831 
	C606.094055,851.674316 607.167480,852.965942 608.062256,854.766113 
	C613.741638,868.277283 628.151855,869.933044 641.729187,858.446899 
	C641.888977,860.469604 642.037537,862.349854 642.188538,864.260559 
	C648.880676,864.260559 655.299255,864.260559 661.834290,864.260559 
	C661.834290,860.992432 661.834290,858.023071 662.395203,854.422180 
M394.125153,805.180298 
	C392.761414,799.255920 388.963470,795.547546 383.264587,793.957092 
	C374.426025,791.490356 366.603424,793.227051 360.261566,801.089722 
	C360.112732,798.513000 360.010376,796.740784 359.915314,795.095337 
	C353.252747,795.095337 346.832489,795.095337 339.762146,795.625549 
	C339.510498,796.566223 339.041290,797.506409 339.039185,798.447632 
	C338.994446,818.929077 338.975220,839.410645 339.059479,859.891785 
	C339.065002,861.231567 339.939575,862.567810 341.120300,864.221985 
	C347.359924,864.221985 353.599579,864.221985 360.092804,864.221985 
	C360.092804,857.485352 360.090729,851.169556 360.093262,844.853699 
	C360.097260,835.028381 360.025848,825.202209 360.136536,815.378113 
	C360.216553,808.276733 362.693512,805.084106 367.668671,805.184814 
	C372.447479,805.281433 374.736115,808.382080 374.890625,815.187439 
	C374.985138,819.348633 374.923492,823.513550 374.924286,827.676758 
	C374.926636,839.794678 374.925140,851.912598 374.925140,864.771973 
	C381.800049,864.471802 388.219421,864.191528 395.271942,863.365540 
	C395.507690,862.588562 395.947296,861.812073 395.949280,861.034485 
	C395.993225,843.933716 396.023071,826.832764 395.926514,809.732483 
	C395.918976,808.398071 394.962799,807.069031 394.125153,805.180298 
M486.205322,864.276611 
	C492.120087,864.276611 498.034851,864.276611 503.992462,864.276611 
	C504.158691,862.448792 504.293365,860.967957 504.880981,859.097229 
	C505.025726,858.960327 505.170441,858.823364 505.887604,859.038208 
	C510.818512,866.032837 517.942627,866.893372 525.514648,865.599915 
	C532.732971,864.366821 536.734070,859.287048 538.474976,852.561523 
	C539.551208,848.403809 540.385254,844.025879 540.322510,839.761658 
	C540.163818,828.971191 540.438721,818.022522 538.678955,807.446838 
	C536.589172,794.888184 524.379272,789.300415 512.975342,794.566162 
	C510.277649,795.811768 508.029144,798.030212 504.972412,800.235168 
	C504.972412,788.069397 504.972412,776.532959 504.972412,765.079834 
	C498.190094,765.079834 491.887695,765.079834 484.893494,765.582764 
	C484.595612,767.000244 484.040192,768.417358 484.037781,769.835327 
	C483.987549,799.551392 483.975433,829.267517 484.065369,858.983398 
	C484.070343,860.626221 485.024048,862.266113 486.205322,864.276611 
M363.406281,159.957108 
	C350.943359,166.673859 338.551056,173.527466 325.971619,180.018402 
	C322.499481,181.810028 321.380096,183.895218 321.388580,187.754471 
	C321.516785,246.071335 321.475220,304.388580 321.487976,362.705750 
	C321.488373,364.420593 321.647308,366.135376 321.745636,368.119080 
	C322.910461,367.680817 323.396454,367.554382 323.829437,367.326996 
	C373.377472,341.309631 422.907013,315.257050 472.503662,289.332733 
	C475.330200,287.855286 475.572540,285.911987 475.563110,283.279816 
	C475.504059,266.784576 475.259491,250.281494 475.715057,233.798676 
	C475.836578,229.401657 477.314270,224.495544 479.706787,220.825363 
	C484.235992,213.877304 493.262238,211.662292 501.086060,214.364914 
	C508.897888,217.063385 513.937195,224.063339 513.973633,232.723053 
	C514.044556,249.551346 514.048218,266.380951 513.894348,283.208313 
	C513.863770,286.557678 514.661987,288.547058 517.892090,290.224121 
	C566.525208,315.474304 615.073547,340.887726 663.649841,366.247406 
	C664.874451,366.886749 666.190125,367.351624 667.757507,368.024048 
	C667.848450,366.528229 667.942383,365.702515 667.942505,364.876801 
	C667.949585,305.559937 667.922668,246.242996 668.022888,186.926285 
	C668.028259,183.741043 666.789368,182.223419 664.154968,180.821243 
	C643.424133,169.787277 622.819519,158.514404 602.021851,147.609253 
	C598.660278,145.846634 594.537720,144.699966 590.762268,144.687531 
	C535.111633,144.504349 479.444244,145.332642 423.816986,144.178085 
	C401.884644,143.722870 381.997864,146.737946 363.406281,159.957108 
M480.831329,595.591370 
	C484.078735,597.287720 487.428772,598.817017 490.543243,600.729797 
	C493.380859,602.472595 495.723145,602.459473 498.769989,600.857483 
	C553.610779,572.022827 608.506287,543.291870 663.447083,514.648254 
	C666.611267,512.998535 668.039429,511.267761 668.025330,507.475159 
	C667.872314,466.321289 667.886536,425.166473 668.008545,384.012390 
	C668.018433,380.676453 666.915771,379.022522 664.006592,377.510437 
	C624.400574,356.924316 584.863342,336.205841 545.304382,315.529266 
	C544.320129,315.014832 543.280396,314.606598 541.470581,313.789368 
	C541.470581,316.335236 541.470581,318.263855 541.470581,320.192474 
	C541.471191,359.514130 541.424744,398.835968 541.550659,438.157227 
	C541.562317,441.780884 540.553955,443.832764 537.229248,445.528076 
	C524.173157,452.185608 511.236115,459.082031 498.358276,466.079956 
	C495.687103,467.531525 493.646332,467.479858 491.012390,466.049561 
	C478.132263,459.055267 465.211334,452.128265 452.153900,445.473633 
	C448.814819,443.771881 447.833923,441.747772 447.845673,438.124847 
	C447.973663,398.636993 447.925079,359.148590 447.924530,319.660309 
	C447.924530,317.921448 447.924530,316.182587 447.924530,313.827728 
	C446.125183,314.642975 445.076477,315.057709 444.082489,315.577148 
	C404.373291,336.326294 364.692627,357.130432 324.919800,377.756805 
	C321.707489,379.422760 321.443115,381.618774 321.446442,384.592590 
	C321.491913,425.413757 321.539246,466.235229 321.377075,507.055817 
	C321.361420,510.998169 322.680359,512.905579 326.086395,514.678833 
	C377.497559,541.444641 428.833130,568.355774 480.831329,595.591370 
M218.702927,763.129822 
	C199.674118,764.865784 190.959305,772.277710 188.959427,791.063049 
	C187.539139,804.403992 187.675018,817.992798 188.143555,831.435120 
	C189.031021,856.896118 200.950256,867.296631 226.513779,865.952026 
	C242.706009,865.100342 252.316498,857.186401 255.072632,841.214172 
	C258.034882,824.047180 257.903229,806.650452 255.380356,789.475952 
	C252.783691,771.799072 243.011887,763.833191 225.136475,763.113098 
	C223.307892,763.039429 221.474136,763.093811 218.702927,763.129822 
M807.487061,794.520874 
	C805.320557,794.522766 803.080994,794.885315 801.000244,794.463806 
	C792.246399,792.690247 787.275452,796.558777 783.692688,804.344849 
	C780.711060,810.824463 776.445007,816.712952 772.747864,822.863281 
	C772.431885,822.733215 772.115906,822.603088 771.799927,822.473022 
	C771.799927,803.378357 771.799927,784.283691 771.799927,764.951294 
	C765.190613,764.951294 758.914551,764.951294 752.437256,764.951294 
	C752.437256,798.105164 752.437256,831.021973 752.437256,864.094299 
	C758.987305,864.094299 765.329468,864.094299 772.199036,864.094299 
	C772.199036,851.854553 772.199036,840.062195 772.199036,828.269836 
	C778.185425,839.129883 783.365906,850.092896 788.724609,860.967957 
	C789.424316,862.388062 790.988892,864.307739 792.240051,864.374939 
	C798.663208,864.719910 805.114868,864.534668 812.214050,864.534668 
	C811.155945,862.495850 810.466797,861.058777 809.683167,859.675293 
	C804.102356,849.822937 798.715027,839.851013 792.797974,830.204285 
	C790.595520,826.613586 790.967529,824.149109 793.178223,820.903931 
	C798.333313,813.336426 803.173096,805.551819 808.016357,797.777771 
	C808.523804,796.963318 808.200867,795.631470 807.487061,794.520874 
M326.818146,722.165894 
	C326.817810,705.172119 326.839355,688.178223 326.808929,671.184509 
	C326.790680,660.981384 320.777649,654.716248 310.558746,654.168335 
	C303.639221,653.797302 297.619141,655.779053 292.867371,662.317322 
	C292.597198,659.417847 292.446777,657.803528 292.279236,656.005493 
	C285.815155,656.005493 279.552917,656.005493 273.314880,656.005493 
	C273.314880,679.302856 273.314880,702.361389 273.314880,725.546631 
	C279.767578,725.546631 285.864532,725.546631 292.539520,725.546631 
	C292.539520,723.719299 292.539368,722.097656 292.539551,720.476074 
	C292.540955,706.647766 292.504913,692.819214 292.576752,678.991272 
	C292.590485,676.344482 292.290283,673.283264 293.480774,671.172180 
	C294.656158,669.087830 297.502594,666.811218 299.679749,666.746033 
	C301.850952,666.680908 304.692963,668.825195 306.133392,670.806091 
	C307.328400,672.449463 307.155151,675.261780 307.171478,677.559204 
	C307.259216,689.887451 307.216705,702.216675 307.218842,714.545532 
	C307.219482,718.152466 307.218964,721.759399 307.218964,725.765808 
	C313.309937,725.765808 318.779938,725.885864 324.234100,725.646057 
	C325.130615,725.606628 325.957581,723.985840 326.818146,722.165894 
M424.625793,794.959229 
	C415.433990,799.244934 411.472717,806.126038 413.408752,814.750610 
	C416.337921,814.750610 419.318329,814.750549 422.298737,814.750549 
	C425.382172,814.750549 428.465637,814.750610 431.555389,814.750610 
	C431.696808,813.337952 431.762207,812.683105 431.827972,812.028259 
	C432.428223,806.053345 434.344330,803.937866 439.156982,803.936768 
	C444.197510,803.935608 446.517670,806.414490 446.828644,812.305359 
	C446.950012,814.604309 446.848480,816.915039 446.848480,819.159485 
	C440.078156,819.815308 433.577515,819.972717 427.272827,821.165771 
	C417.649017,822.986877 412.139984,829.024048 411.115845,838.360474 
	C410.684692,842.291382 410.706757,846.389648 411.308533,850.290649 
	C412.415283,857.465332 415.805389,863.297119 423.414703,865.232300 
	C431.348053,867.249878 438.626587,866.019409 444.495239,859.761414 
	C445.556305,858.630005 446.541656,857.427551 447.824890,855.956421 
	C448.261719,859.166931 448.614929,861.763000 448.948761,864.216431 
	C455.161957,864.216431 460.903412,864.216431 466.003601,864.216431 
	C466.003601,856.885559 466.014160,849.920471 466.001129,842.955444 
	C465.982422,832.965027 466.182739,822.966736 465.853241,812.986267 
	C465.506256,802.477051 460.783997,796.579956 451.047913,794.350281 
	C442.518829,792.396912 433.895996,792.116394 424.625793,794.959229 
M733.561768,654.157166 
	C728.843811,655.009094 723.874451,655.194641 719.462830,656.858704 
	C711.517639,659.855652 707.806824,667.522827 709.359009,675.567017 
	C715.474915,675.567017 721.558105,675.567017 727.688293,675.567017 
	C727.783264,674.402344 727.829590,673.574219 727.921387,672.751099 
	C728.525635,667.328552 730.653015,665.102234 735.225708,665.090210 
	C740.089966,665.077393 742.508423,667.500244 742.861816,672.992615 
	C743.027100,675.560364 742.890137,678.147583 742.890137,680.452515 
	C736.363953,680.999878 730.524902,681.166016 724.796143,682.048401 
	C716.891113,683.265991 710.401978,687.065125 708.195862,695.248535 
	C705.645752,704.707642 705.335327,714.373413 712.505981,722.107422 
	C714.955444,724.749268 719.310730,726.361694 723.029358,726.940613 
	C731.600586,728.275024 738.628967,724.974731 743.775330,716.624512 
	C744.332092,720.338684 744.731995,723.006165 745.110779,725.533081 
	C751.261902,725.533081 756.877808,725.533081 762.044983,725.533081 
	C762.044983,710.171814 762.051697,695.065857 762.043335,679.959900 
	C762.033020,661.314209 755.725830,654.822266 737.005066,654.171753 
	C736.172668,654.142822 735.338684,654.160645 733.561768,654.157166 
M488.643585,656.756836 
	C481.488800,653.825012 474.076355,653.554688 466.564117,654.762329 
	C455.465332,656.546570 449.133179,662.255310 446.967407,673.156433 
	C444.608704,685.028503 444.753204,697.027466 447.206177,708.868958 
	C449.276123,718.861694 455.580322,725.272339 465.794952,726.414917 
	C471.968262,727.105469 478.513092,727.024109 484.560455,725.736755 
	C495.628937,723.380493 502.291870,713.719177 501.729309,702.491821 
	C495.341309,702.491821 488.947540,702.491821 482.492004,702.491821 
	C482.243713,704.436829 482.165253,706.105164 481.799438,707.707825 
	C480.914764,711.583740 478.918488,714.551941 474.557983,714.776184 
	C470.158508,715.002319 467.679840,712.277222 466.842316,708.380981 
	C465.852570,703.776733 465.455414,699.045044 464.707733,693.698914 
	C477.928253,693.698914 490.135803,693.698914 503.395691,693.698914 
	C502.479462,685.809082 502.070343,678.513855 500.678131,671.411316 
	C499.411835,664.951294 495.516724,659.946411 488.643585,656.756836 
M562.873169,679.332825 
	C564.545715,684.831848 568.584229,688.249634 573.395630,690.775635 
	C577.805969,693.091064 582.529419,694.817322 586.902100,697.194641 
	C589.771057,698.754333 593.178650,700.492798 594.652649,703.105896 
	C596.011475,705.514709 596.249573,709.919678 594.864563,712.102112 
	C593.647705,714.019531 589.510437,714.734497 586.641235,714.786682 
	C583.096924,714.851318 581.783447,711.786560 581.353577,708.578247 
	C581.135925,706.953369 581.048035,705.311035 580.893860,703.591919 
	C574.598206,703.591919 568.507263,703.591919 562.456726,703.591919 
	C561.130554,713.865295 564.482971,721.498108 572.398987,724.510193 
	C582.515076,728.359558 592.966980,728.679443 603.105408,724.524170 
	C610.408936,721.530823 614.820801,715.859375 615.620911,707.827271 
	C616.409119,699.915466 613.079956,693.748169 606.523560,689.659546 
	C601.469482,686.507690 595.884033,684.219910 590.634521,681.364685 
	C587.889587,679.871765 584.657349,678.486816 582.958069,676.113281 
	C581.638672,674.270325 581.328735,670.350891 582.452698,668.494019 
	C583.572998,666.643311 587.155151,665.204346 589.438782,665.469910 
	C591.340820,665.691040 593.232178,668.444458 594.536926,670.459290 
	C595.338440,671.696899 595.027039,673.655212 595.236023,675.469116 
	C601.475464,675.469116 607.571106,675.469116 613.630859,675.469116 
	C614.870728,667.036194 611.268982,660.372986 603.318115,656.895386 
	C593.816589,652.739624 584.109741,653.287292 574.597473,656.804688 
	C564.655640,660.480957 560.712646,667.974670 562.873169,679.332825 
M321.871948,856.284912 
	C328.370422,845.448730 326.330078,834.959229 315.848846,828.125549 
	C311.007904,824.969238 305.496918,822.854431 300.370392,820.116455 
	C297.753204,818.718628 294.524841,817.510559 293.027863,815.252197 
	C291.670135,813.203918 291.255707,809.307556 292.343597,807.230774 
	C293.290100,805.423767 297.041840,804.022827 299.320465,804.308044 
	C301.199158,804.543274 303.024658,807.324219 304.318268,809.334534 
	C305.123383,810.585754 304.894745,812.502197 305.143433,814.212036 
	C311.438232,814.212036 317.533661,814.212036 323.600952,814.212036 
	C324.563812,805.082764 320.380737,798.263550 311.641541,795.046143 
	C302.675385,791.745361 293.601044,792.283997 284.741638,795.443909 
	C277.687073,797.960022 272.824341,802.655701 272.002716,810.566345 
	C271.169464,818.588318 274.598389,824.537842 281.377686,828.437866 
	C285.975037,831.082642 290.993561,832.986328 295.667053,835.511353 
	C298.701782,837.150879 302.282532,838.751526 304.082672,841.409790 
	C305.638885,843.707764 305.991760,847.772644 305.138000,850.515320 
	C304.010895,854.136230 300.105560,854.391235 296.615387,853.800415 
	C292.871521,853.166687 291.456177,850.508301 291.121765,847.051392 
	C290.979462,845.580322 290.914581,844.101807 290.798340,842.388428 
	C284.578766,842.388428 278.497681,842.388428 272.450775,842.388428 
	C270.949738,850.897095 273.522675,857.995667 279.417236,861.903381 
	C290.771820,869.430725 312.279327,866.851318 321.871948,856.284912 
M688.843750,797.221558 
	C682.984375,801.075134 679.686584,806.856812 679.306335,813.491089 
	C678.699463,824.080261 678.287598,834.831421 679.444824,845.332092 
	C680.841492,858.005981 688.354736,864.525635 701.004944,865.685059 
	C706.082825,866.150330 711.380249,865.922363 716.397522,865.014160 
	C729.342346,862.671082 736.443298,852.516113 734.978882,839.081177 
	C728.746216,839.081177 722.493713,839.081177 716.694641,839.081177 
	C715.661621,842.773621 715.069275,846.248535 713.708313,849.390503 
	C712.218323,852.830139 708.815735,854.493347 705.437378,853.285400 
	C703.006104,852.416077 699.551270,849.792603 699.444153,847.796570 
	C698.797058,835.731079 698.667297,823.610840 699.055603,811.531067 
	C699.197205,807.125122 703.020691,805.296570 707.419373,805.470154 
	C711.720886,805.639893 714.155090,808.002991 714.990723,812.086548 
	C715.479614,814.475220 715.776184,816.903320 716.123413,819.088379 
	C722.646057,819.088379 728.749573,819.088379 734.817139,819.088379 
	C735.683594,807.682617 730.689392,798.620361 721.033691,795.320496 
	C710.446411,791.702271 699.770630,791.635986 688.843750,797.221558 
M409.404297,725.762878 
	C417.588562,725.764709 417.591125,725.765442 419.796570,717.813782 
	C420.730560,714.446106 421.650330,711.074341 422.577972,707.704895 
	C427.288055,690.597107 431.998596,673.489502 436.806458,656.027893 
	C430.246246,656.027893 424.165588,656.027893 417.702789,656.027893 
	C414.384186,672.860352 411.077179,689.633972 407.770172,706.407654 
	C407.470764,706.397339 407.171326,706.386963 406.871887,706.376648 
	C403.691650,689.601929 400.511414,672.827209 397.364288,656.227234 
	C390.535431,656.227234 384.187775,656.227234 377.577576,656.227234 
	C383.826355,679.688965 389.944031,702.658508 396.097595,725.762817 
	C400.460449,725.762817 404.450836,725.762817 409.404297,725.762878 
M688.462219,653.336426 
	C688.462219,647.742493 688.462219,642.148499 688.462219,635.946960 
	C684.767517,637.565735 681.878052,639.261963 678.757935,640.113037 
	C671.222534,642.168579 667.097534,646.260376 668.810730,654.555725 
	C668.858154,654.785400 668.516174,655.095581 668.234192,655.575012 
	C665.975037,655.737305 663.591858,655.908569 661.398926,656.066162 
	C661.398926,660.238220 661.398926,663.949158 661.398926,667.653992 
	C664.072876,667.809448 666.333923,667.940918 668.944702,668.092712 
	C668.944702,682.366028 668.888367,696.308716 668.966187,710.250671 
	C669.011597,718.383850 673.309937,724.301758 681.166138,725.565369 
	C686.580017,726.436218 692.247131,725.732422 697.789917,725.732422 
	C697.789917,721.523865 697.789917,717.797668 697.789917,714.089905 
	C689.148560,713.823303 688.498718,713.176453 688.461914,704.744812 
	C688.426392,696.594299 688.453979,688.443542 688.453918,680.292847 
	C688.453857,676.221741 688.453918,672.150635 688.453918,667.578674 
	C692.262085,667.578674 695.317322,667.578674 698.378052,667.578674 
	C698.378052,663.450562 698.378052,659.851807 698.378052,656.649963 
	C694.859131,655.812805 691.675232,655.055359 688.462219,653.336426 
M779.873047,704.465149 
	C779.875549,706.630371 779.847961,708.796082 779.886169,710.960632 
	C780.004761,717.678955 783.206604,722.409241 789.419800,724.828125 
	C795.811096,727.316589 802.362915,726.484985 808.830750,725.719849 
	C808.830750,721.471252 808.830750,717.854553 808.830750,714.150513 
	C804.863831,713.721436 799.656433,714.984619 799.524353,709.083008 
	C799.219849,695.476257 799.427734,681.858093 799.427734,667.772217 
	C802.894043,667.772217 805.971802,667.772217 809.163208,667.772217 
	C809.163208,663.567078 809.163208,659.844788 809.163208,655.591431 
	C805.762146,655.591431 802.684265,655.591431 799.233215,655.591431 
	C799.233215,648.968567 799.233215,642.873840 799.233215,636.024658 
	C795.778320,637.528687 793.021545,639.081970 790.063599,639.947144 
	C782.589844,642.133118 777.924316,646.052612 779.707275,654.660889 
	C779.751465,654.874451 779.366638,655.176819 779.040283,655.637573 
	C776.914246,655.737366 774.644409,655.843933 772.195190,655.958862 
	C772.195190,659.945007 772.195190,663.677063 772.195190,667.607544 
	C774.831848,667.787231 777.221436,667.950134 779.872925,668.130859 
	C779.872925,680.202515 779.872925,691.839233 779.873047,704.465149 
M588.764465,810.666504 
	C590.733215,810.468201 592.702026,810.269897 594.740601,810.064514 
	C594.740601,804.315430 594.740601,798.744934 594.740601,793.125610 
	C587.037598,792.715759 581.375977,795.804749 576.948059,802.404236 
	C576.723877,799.334717 576.559998,797.090698 576.399048,794.887024 
	C570.081421,794.887024 564.181152,794.887024 558.298645,794.887024 
	C558.298645,818.182861 558.298645,841.113647 558.298645,864.202087 
	C564.793091,864.202087 571.025696,864.202087 577.620789,864.202087 
	C577.620789,862.061035 577.616211,860.254578 577.621460,858.448120 
	C577.656067,846.617676 577.516846,834.783142 577.793274,822.958313 
	C577.965332,815.598328 580.711731,812.666077 588.764465,810.666504 
M517.962646,674.500549 
	C517.962646,691.429260 517.962646,708.357910 517.962646,725.404663 
	C524.701111,725.404663 530.898987,725.404663 537.473633,725.404663 
	C537.473633,714.087097 537.471924,703.121643 537.473999,692.156128 
	C537.477234,674.816345 538.258118,673.855103 554.677734,671.053589 
	C554.677734,665.499268 554.677734,659.933472 554.677734,654.247131 
	C547.044556,654.027161 541.278687,656.901001 536.795166,663.730591 
	C536.555603,660.529907 536.388367,658.294312 536.229614,656.173462 
	C529.947632,656.173462 524.058228,656.173462 517.962646,656.173462 
	C517.962646,662.209717 517.962646,667.855408 517.962646,674.500549 
M649.954712,683.500000 
	C649.954712,674.383484 649.954712,665.266907 649.954712,656.031921 
	C643.202942,656.031921 636.929260,656.031921 630.689941,656.031921 
	C630.689941,679.355164 630.689941,702.411011 630.689941,725.369202 
	C637.295593,725.369202 643.525085,725.369202 649.954712,725.369202 
	C649.954712,711.477905 649.954712,697.988953 649.954712,683.500000 
M639.560547,641.230469 
	C642.961731,641.230469 646.362915,641.230469 649.646362,641.230469 
	C649.646362,635.731750 649.646362,630.992249 649.646362,626.208130 
	C643.124695,626.208130 636.917603,626.208130 630.537720,626.208130 
	C630.537720,631.267395 630.537720,636.006348 630.537720,641.230408 
	C633.366028,641.230408 635.992188,641.230408 639.560547,641.230469 
M345.780731,639.409668 
	C346.230072,639.985229 346.669983,641.053040 347.130127,641.061829 
	C353.043518,641.174744 358.959778,641.136414 364.940979,641.136414 
	C364.940979,635.840515 364.940979,631.104187 364.940979,626.223145 
	C358.480438,626.223145 352.277924,626.223145 345.763672,626.223145 
	C345.763672,630.499390 345.763672,634.463013 345.780731,639.409668 
M754.873413,628.765198 
	C750.124390,628.765198 745.375366,628.765198 740.703491,628.765198 
	C740.703491,633.960449 740.703491,638.547485 740.703491,643.334351 
	C745.855469,643.334351 750.732788,643.334351 755.667114,643.334351 
	C755.667114,638.407532 755.667114,633.797363 754.873413,628.765198 
M621.610535,782.351196 
	C624.333008,782.351196 627.055420,782.351196 629.705383,782.351196 
	C629.705383,776.986816 629.705383,772.417175 629.705383,767.701660 
	C624.598450,767.701660 619.755676,767.701660 614.911499,767.701660 
	C614.911499,772.743103 614.911499,777.424805 614.911499,782.351135 
	C617.090210,782.351135 618.896179,782.351135 621.610535,782.351196 
M646.497925,767.349304 
	C644.083862,767.349304 641.669800,767.349304 639.203369,767.349304 
	C639.203369,772.678589 639.203369,777.276550 639.203369,782.080688 
	C644.272400,782.080688 649.156616,782.080688 654.128113,782.080688 
	C654.128113,777.103760 654.128113,772.403931 654.128113,767.348877 
	C651.674377,767.348877 649.548035,767.348877 646.497925,767.349304 
M719.788940,643.630432 
	C723.524292,643.630432 727.259705,643.630432 731.044556,643.630432 
	C731.044556,638.298218 731.044556,633.614441 731.044556,629.046326 
	C725.864136,629.046326 721.029114,629.046326 715.984131,629.046326 
	C715.984131,633.237305 715.785278,637.045654 716.116028,640.807495 
	C716.205078,641.820496 717.903259,642.692017 719.788940,643.630432 
z"/>
<path fill="#FAB801" opacity="1.000000" stroke="none" 
	d="
M363.734131,159.785446 
	C381.997864,146.737946 401.884644,143.722870 423.816986,144.178085 
	C479.444244,145.332642 535.111633,144.504349 590.762268,144.687531 
	C594.537720,144.699966 598.660278,145.846634 602.021851,147.609253 
	C622.819519,158.514404 643.424133,169.787277 664.154968,180.821243 
	C666.789368,182.223419 668.028259,183.741043 668.022888,186.926285 
	C667.922668,246.242996 667.949585,305.559937 667.942505,364.876801 
	C667.942383,365.702515 667.848450,366.528229 667.757507,368.024048 
	C666.190125,367.351624 664.874451,366.886749 663.649841,366.247406 
	C615.073547,340.887726 566.525208,315.474304 517.892090,290.224121 
	C514.661987,288.547058 513.863770,286.557678 513.894348,283.208313 
	C514.048218,266.380951 514.044556,249.551346 513.973633,232.723053 
	C513.937195,224.063339 508.897888,217.063385 501.086060,214.364914 
	C493.262238,211.662292 484.235992,213.877304 479.706787,220.825363 
	C477.314270,224.495544 475.836578,229.401657 475.715057,233.798676 
	C475.259491,250.281494 475.504059,266.784576 475.563110,283.279816 
	C475.572540,285.911987 475.330200,287.855286 472.503662,289.332733 
	C422.907013,315.257050 373.377472,341.309631 323.829437,367.326996 
	C323.396454,367.554382 322.910461,367.680817 321.745636,368.119080 
	C321.647308,366.135376 321.488373,364.420593 321.487976,362.705750 
	C321.475220,304.388580 321.516785,246.071335 321.388580,187.754471 
	C321.380096,183.895218 322.499481,181.810028 325.971619,180.018402 
	C338.551056,173.527466 350.943359,166.673859 363.734131,159.785446 
M652.969666,230.500000 
	C652.969666,218.893372 652.969666,207.286743 652.969666,195.420547 
	C620.645691,195.420547 588.942688,195.420547 557.058167,195.420547 
	C556.896667,196.859955 556.660461,197.987976 556.659424,199.116226 
	C556.631042,229.262817 556.700500,259.409851 556.522766,289.555450 
	C556.501282,293.206665 558.465820,294.400848 561.054260,295.750305 
	C589.991150,310.836365 618.905396,325.965820 647.833374,341.068909 
	C649.249573,341.808319 650.736633,342.411957 652.969666,343.436035 
	C652.969666,305.629120 652.969666,268.564545 652.969666,230.500000 
M363.500000,195.084930 
	C354.721710,195.084930 345.943451,195.084930 337.054443,195.084930 
	C337.054443,244.751663 337.054443,293.725067 337.054443,343.204285 
	C338.504639,342.564728 339.416290,342.225677 340.270325,341.776855 
	C370.051605,326.125946 399.803558,310.418732 429.641693,294.877014 
	C432.585114,293.343842 432.999023,291.353302 432.991943,288.476654 
	C432.919708,259.153259 432.951447,229.829590 432.936157,200.505997 
	C432.935303,198.888519 432.775879,197.271118 432.660156,195.085022 
	C409.719025,195.085022 387.109528,195.085022 363.500000,195.084930 
M447.931946,253.500000 
	C447.931946,263.742279 447.931946,273.984589 447.931946,285.002045 
	C450.769104,283.585785 452.729431,282.324310 454.871094,281.596161 
	C459.542572,280.007996 460.829285,276.997589 460.687531,272.126007 
	C460.314789,259.314606 460.506561,246.484680 460.605713,233.663147 
	C460.630005,230.519653 460.793457,227.292297 461.519928,224.253372 
	C465.417786,207.948547 481.461731,196.585587 497.716034,198.412582 
	C515.559082,200.418167 528.687073,214.231628 528.927185,231.642700 
	C529.124634,245.960831 528.924866,260.284180 528.985901,274.604858 
	C528.992615,276.173645 529.023193,278.529297 529.961548,279.166351 
	C533.401611,281.501678 537.229736,283.265198 541.094971,285.342407 
	C541.418945,284.041473 541.567749,283.722260 541.568054,283.402924 
	C541.596619,254.261841 541.675842,225.120331 541.474854,195.980774 
	C541.463013,194.263901 539.565063,191.865753 537.904541,190.964584 
	C524.884827,183.899017 511.665039,177.203049 498.615326,170.191391 
	C495.783051,168.669601 493.575745,168.703278 490.767029,170.205795 
	C477.851318,177.115036 464.872955,183.912720 451.797791,190.514175 
	C448.829620,192.012772 447.825104,193.753250 447.854095,197.048431 
	C448.016815,215.531082 447.932098,234.015915 447.931946,253.500000 
M362.877319,177.292404 
	C361.831635,177.946320 360.785950,178.600220 359.740295,179.254135 
	C359.814331,179.539276 359.888336,179.824432 359.962372,180.109589 
	C361.555450,180.109589 363.148499,180.109634 364.741547,180.109573 
	C383.705658,180.108765 402.688751,179.593338 421.627075,180.291794 
	C433.830261,180.741867 444.812134,178.710144 455.192993,172.096695 
	C461.951477,167.790985 469.383942,164.543213 477.617950,160.245544 
	C475.655731,159.875473 475.067535,159.667938 474.479187,159.667465 
	C449.027374,159.646774 423.575348,159.601196 398.124146,159.722260 
	C396.095642,159.731903 393.920532,160.619659 392.072754,161.591904 
	C382.507874,166.624619 373.027313,171.817627 362.877319,177.292404 
M596.585205,161.587936 
	C594.063110,160.939087 591.544189,159.741470 589.018372,159.726593 
	C564.879883,159.584488 540.740234,159.638031 516.600891,159.656219 
	C515.383484,159.657150 514.166138,159.849167 511.487122,160.075928 
	C523.769409,166.498474 534.707458,172.360641 545.801025,177.912109 
	C548.356201,179.190796 551.440430,179.994644 554.288208,180.014633 
	C577.760498,180.179489 601.234375,180.111237 624.707825,180.099976 
	C626.112732,180.099304 627.517700,179.981491 628.922607,179.918182 
	C628.999084,179.647476 629.075500,179.376755 629.151917,179.106049 
	C618.528198,173.390625 607.904480,167.675201 596.585205,161.587936 
z"/>
<path fill="#FAB801" opacity="1.000000" stroke="none" 
	d="
M480.508850,595.412109 
	C428.833130,568.355774 377.497559,541.444641 326.086395,514.678833 
	C322.680359,512.905579 321.361420,510.998169 321.377075,507.055817 
	C321.539246,466.235229 321.491913,425.413757 321.446442,384.592590 
	C321.443115,381.618774 321.707489,379.422760 324.919800,377.756805 
	C364.692627,357.130432 404.373291,336.326294 444.082489,315.577148 
	C445.076477,315.057709 446.125183,314.642975 447.924530,313.827728 
	C447.924530,316.182587 447.924530,317.921448 447.924530,319.660309 
	C447.925079,359.148590 447.973663,398.636993 447.845673,438.124847 
	C447.833923,441.747772 448.814819,443.771881 452.153900,445.473633 
	C465.211334,452.128265 478.132263,459.055267 491.012390,466.049561 
	C493.646332,467.479858 495.687103,467.531525 498.358276,466.079956 
	C511.236115,459.082031 524.173157,452.185608 537.229248,445.528076 
	C540.553955,443.832764 541.562317,441.780884 541.550659,438.157227 
	C541.424744,398.835968 541.471191,359.514130 541.470581,320.192474 
	C541.470581,318.263855 541.470581,316.335236 541.470581,313.789368 
	C543.280396,314.606598 544.320129,315.014832 545.304382,315.529266 
	C584.863342,336.205841 624.400574,356.924316 664.006592,377.510437 
	C666.915771,379.022522 668.018433,380.676453 668.008545,384.012390 
	C667.886536,425.166473 667.872314,466.321289 668.025330,507.475159 
	C668.039429,511.267761 666.611267,512.998535 663.447083,514.648254 
	C608.506287,543.291870 553.610779,572.022827 498.769989,600.857483 
	C495.723145,602.459473 493.380859,602.472595 490.543243,600.729797 
	C487.428772,598.817017 484.078735,597.287720 480.508850,595.412109 
M433.115265,451.632172 
	C433.054077,449.803528 432.940125,447.974884 432.939575,446.146210 
	C432.928925,412.314789 432.931793,378.483398 432.931824,344.651978 
	C432.931824,342.887360 432.931824,341.122742 432.931824,338.735016 
	C431.081116,339.514221 429.860596,339.928223 428.731842,340.517853 
	C399.199951,355.945770 369.707489,371.449738 340.110291,386.751251 
	C336.927460,388.396759 336.588562,390.559937 336.593597,393.566132 
	C336.651611,428.230743 336.714508,462.895935 336.526245,497.559601 
	C336.502838,501.869873 337.952576,504.006927 341.694977,505.953369 
	C391.208221,531.705627 440.650543,557.594543 490.048553,583.567261 
	C493.319824,585.287231 495.822113,585.475159 499.212402,583.689697 
	C549.034729,557.450806 598.922546,531.335938 648.867004,505.330200 
	C652.012878,503.692108 653.030884,501.840759 653.019287,498.398865 
	C652.901428,463.401245 652.892273,428.402863 653.030212,393.405396 
	C653.044067,389.892242 651.894043,388.107208 648.820129,386.514954 
	C619.530823,371.343719 590.326294,356.008881 561.089172,340.736755 
	C559.846924,340.087830 558.524292,339.592865 556.616028,338.751434 
	C556.616028,341.495300 556.615967,343.474030 556.615967,345.452789 
	C556.616272,379.450867 556.665894,413.449158 556.495483,447.446381 
	C556.485168,449.502319 555.284668,452.573090 553.692566,453.444519 
	C534.988220,463.682190 516.124817,473.631287 497.218414,483.493530 
	C495.901367,484.180542 493.597473,484.173981 492.280579,483.483215 
	C472.663177,473.192871 453.134888,462.732666 433.115265,451.632172 
z"/>
<path fill="#FEFBFC" opacity="1.000000" stroke="none" 
	d="
M219.172852,763.109314 
	C221.474136,763.093811 223.307892,763.039429 225.136475,763.113098 
	C243.011887,763.833191 252.783691,771.799072 255.380356,789.475952 
	C257.903229,806.650452 258.034882,824.047180 255.072632,841.214172 
	C252.316498,857.186401 242.706009,865.100342 226.513779,865.952026 
	C200.950256,867.296631 189.031021,856.896118 188.143555,831.435120 
	C187.675018,817.992798 187.539139,804.403992 188.959427,791.063049 
	C190.959305,772.277710 199.674118,764.865784 219.172852,763.109314 
M235.278900,828.639282 
	C235.191483,817.813416 235.367447,806.975769 234.884796,796.167542 
	C234.696259,791.945679 233.444550,787.629883 231.917862,783.647949 
	C230.324661,779.492371 226.512375,778.036560 222.155777,778.053772 
	C217.789780,778.070984 214.256912,779.676880 212.402206,783.744934 
	C211.311035,786.138184 210.176956,788.790466 210.141937,791.341064 
	C209.929718,806.800659 209.976669,822.264893 210.089035,837.726440 
	C210.103104,839.662415 210.874954,841.639771 211.531784,843.515198 
	C213.263763,848.460632 216.741135,851.070557 222.079514,851.084534 
	C227.607620,851.098938 231.337341,848.828918 232.918930,843.304260 
	C234.188934,838.867981 234.497894,834.156616 235.278900,828.639282 
z"/>
<path fill="#FEFBFB" opacity="1.000000" stroke="none" 
	d="
M234.859772,625.964783 
	C241.640961,625.964783 248.422165,625.964783 255.681580,625.964783 
	C255.681580,629.672302 255.681595,632.964966 255.681564,636.257629 
	C255.681442,655.738403 255.705353,675.219177 255.674515,694.699890 
	C255.642487,714.931213 244.219376,726.798035 223.927032,727.033936 
	C217.861328,727.104431 211.519714,726.482788 205.756393,724.709534 
	C193.913635,721.065735 187.720825,711.999817 187.482529,699.952698 
	C186.999130,675.514221 187.338150,651.059387 187.338150,626.254700 
	C194.203735,626.254700 200.903107,626.254700 208.120514,626.254700 
	C208.120514,628.802124 208.120163,631.249695 208.120590,633.697266 
	C208.124176,654.177063 208.066391,674.657104 208.170273,695.136414 
	C208.200195,701.038147 208.838913,706.878235 215.102371,710.801636 
	C219.168106,711.117676 222.643295,711.178894 226.118469,711.240112 
	C226.664215,711.119141 227.209961,710.998230 228.233978,710.551392 
	C228.985428,709.911133 229.258606,709.596863 229.531769,709.282532 
	C229.531754,709.282532 229.308212,709.370117 229.610260,709.349487 
	C230.142899,709.055908 230.373489,708.782959 230.604095,708.510071 
	C230.604095,708.510071 230.258072,708.542786 230.629211,708.400879 
	C231.246033,707.844971 231.491699,707.430969 231.737381,707.017029 
	C232.196625,706.251465 232.655869,705.485962 233.313995,704.131104 
	C233.648743,702.697266 233.784607,701.852661 233.920471,701.008057 
	C234.100784,700.290771 234.281113,699.573486 234.528381,698.107544 
	C234.683487,673.560852 234.771622,649.762817 234.859772,625.964783 
z"/>
<path fill="#FEFBFC" opacity="1.000000" stroke="none" 
	d="
M485.585297,765.079834 
	C491.887695,765.079834 498.190094,765.079834 504.972412,765.079834 
	C504.972412,776.532959 504.972412,788.069397 504.972412,800.235168 
	C508.029144,798.030212 510.277649,795.811768 512.975342,794.566162 
	C524.379272,789.300415 536.589172,794.888184 538.678955,807.446838 
	C540.438721,818.022522 540.163818,828.971191 540.322510,839.761658 
	C540.385254,844.025879 539.551208,848.403809 538.474976,852.561523 
	C536.734070,859.287048 532.732971,864.366821 525.514648,865.599915 
	C517.942627,866.893372 510.818512,866.032837 505.456390,858.621277 
	C504.826141,858.631958 504.627075,859.059509 504.428040,859.487122 
	C504.293365,860.967957 504.158691,862.448792 503.992462,864.276611 
	C498.034851,864.276611 492.120087,864.276611 485.925171,863.631592 
	C485.625092,830.351013 485.605194,797.715393 485.585297,765.079834 
M513.426575,805.015198 
	C508.262756,805.025696 506.175751,808.552734 506.067139,812.774902 
	C505.785797,823.715210 506.013702,834.671204 506.199829,845.618164 
	C506.226807,847.203308 506.927917,848.886169 507.686920,850.329346 
	C510.081573,854.882996 515.878052,855.143250 518.633484,850.822388 
	C519.415527,849.596069 520.133545,848.069885 520.165466,846.664856 
	C520.424988,835.233032 520.725220,823.793762 520.532043,812.364868 
	C520.471375,808.777588 518.401001,805.694946 513.426575,805.015198 
z"/>
<path fill="#FDF8F9" opacity="1.000000" stroke="none" 
	d="
M807.875122,794.530273 
	C808.200867,795.631470 808.523804,796.963318 808.016357,797.777771 
	C803.173096,805.551819 798.333313,813.336426 793.178223,820.903931 
	C790.967529,824.149109 790.595520,826.613586 792.797974,830.204285 
	C798.715027,839.851013 804.102356,849.822937 809.683167,859.675293 
	C810.466797,861.058777 811.155945,862.495850 812.214050,864.534668 
	C805.114868,864.534668 798.663208,864.719910 792.240051,864.374939 
	C790.988892,864.307739 789.424316,862.388062 788.724609,860.967957 
	C783.365906,850.092896 778.185425,839.129883 772.199036,828.269836 
	C772.199036,840.062195 772.199036,851.854553 772.199036,864.094299 
	C765.329468,864.094299 758.987305,864.094299 752.437256,864.094299 
	C752.437256,831.021973 752.437256,798.105164 752.437256,764.951294 
	C758.914551,764.951294 765.190613,764.951294 771.799927,764.951294 
	C771.799927,784.283691 771.799927,803.378357 771.799927,822.473022 
	C772.115906,822.603088 772.431885,822.733215 772.747864,822.863281 
	C776.445007,816.712952 780.711060,810.824463 783.692688,804.344849 
	C787.275452,796.558777 792.246399,792.690247 801.000244,794.463806 
	C803.080994,794.885315 805.320557,794.522766 807.875122,794.530273 
z"/>
<path fill="#FEFCFD" opacity="1.000000" stroke="none" 
	d="
M340.412231,795.095337 
	C346.832489,795.095337 353.252747,795.095337 359.915314,795.095337 
	C360.010376,796.740784 360.112732,798.513000 360.261566,801.089722 
	C366.603424,793.227051 374.426025,791.490356 383.264587,793.957092 
	C388.963470,795.547546 392.761414,799.255920 394.259674,805.950562 
	C394.475708,825.784302 394.557251,844.847717 394.638794,863.911255 
	C388.219421,864.191528 381.800049,864.471802 374.925140,864.771973 
	C374.925140,851.912598 374.926636,839.794678 374.924286,827.676758 
	C374.923492,823.513550 374.985138,819.348633 374.890625,815.187439 
	C374.736115,808.382080 372.447479,805.281433 367.668671,805.184814 
	C362.693512,805.084106 360.216553,808.276733 360.136536,815.378113 
	C360.025848,825.202209 360.097260,835.028381 360.093262,844.853699 
	C360.090729,851.169556 360.092804,857.485352 360.092804,864.221985 
	C353.599579,864.221985 347.359924,864.221985 340.829498,863.604736 
	C340.496521,840.356750 340.454376,817.726074 340.412231,795.095337 
z"/>
<path fill="#FEFDFD" opacity="1.000000" stroke="none" 
	d="
M607.372559,795.091431 
	C613.807739,795.091431 620.242859,795.091431 627.081665,795.091431 
	C627.081665,809.988159 627.072327,824.950439 627.091370,839.912781 
	C627.094360,842.241516 627.060852,844.589905 627.335754,846.894470 
	C627.824097,850.987915 629.826355,853.768555 634.357666,853.838684 
	C639.168945,853.913147 641.194580,850.982727 641.705872,846.690674 
	C641.960815,844.550598 641.910828,842.368225 641.913025,840.204895 
	C641.928345,825.223816 641.921082,810.242737 641.921082,794.818237 
	C648.404541,794.818237 654.646667,794.818237 661.188721,795.414062 
	C661.603882,815.691101 661.719116,835.372437 661.834351,855.053711 
	C661.834290,858.023071 661.834290,860.992432 661.834290,864.260559 
	C655.299255,864.260559 648.880676,864.260559 642.188538,864.260559 
	C642.037537,862.349854 641.888977,860.469604 641.729187,858.446899 
	C628.151855,869.933044 613.741638,868.277283 607.911865,854.021973 
	C607.695374,851.125000 607.580566,848.972290 607.570923,846.819092 
	C607.493591,829.576599 607.436157,812.333984 607.372559,795.091431 
z"/>
<path fill="#FDF8F9" opacity="1.000000" stroke="none" 
	d="
M326.817383,722.630859 
	C325.957581,723.985840 325.130615,725.606628 324.234100,725.646057 
	C318.779938,725.885864 313.309937,725.765808 307.218964,725.765808 
	C307.218964,721.759399 307.219482,718.152466 307.218842,714.545532 
	C307.216705,702.216675 307.259216,689.887451 307.171478,677.559204 
	C307.155151,675.261780 307.328400,672.449463 306.133392,670.806091 
	C304.692963,668.825195 301.850952,666.680908 299.679749,666.746033 
	C297.502594,666.811218 294.656158,669.087830 293.480774,671.172180 
	C292.290283,673.283264 292.590485,676.344482 292.576752,678.991272 
	C292.504913,692.819214 292.540955,706.647766 292.539551,720.476074 
	C292.539368,722.097656 292.539520,723.719299 292.539520,725.546631 
	C285.864532,725.546631 279.767578,725.546631 273.314880,725.546631 
	C273.314880,702.361389 273.314880,679.302856 273.314880,656.005493 
	C279.552917,656.005493 285.815155,656.005493 292.279236,656.005493 
	C292.446777,657.803528 292.597198,659.417847 292.867371,662.317322 
	C297.619141,655.779053 303.639221,653.797302 310.558746,654.168335 
	C320.777649,654.716248 326.790680,660.981384 326.808929,671.184509 
	C326.839355,688.178223 326.817810,705.172119 326.817383,722.630859 
z"/>
<path fill="#FDFAFB" opacity="1.000000" stroke="none" 
	d="
M424.999481,794.834351 
	C433.895996,792.116394 442.518829,792.396912 451.047913,794.350281 
	C460.783997,796.579956 465.506256,802.477051 465.853241,812.986267 
	C466.182739,822.966736 465.982422,832.965027 466.001129,842.955444 
	C466.014160,849.920471 466.003601,856.885559 466.003601,864.216431 
	C460.903412,864.216431 455.161957,864.216431 448.948761,864.216431 
	C448.614929,861.763000 448.261719,859.166931 447.824890,855.956421 
	C446.541656,857.427551 445.556305,858.630005 444.495239,859.761414 
	C438.626587,866.019409 431.348053,867.249878 423.414703,865.232300 
	C415.805389,863.297119 412.415283,857.465332 411.308533,850.290649 
	C410.706757,846.389648 410.684692,842.291382 411.115845,838.360474 
	C412.139984,829.024048 417.649017,822.986877 427.272827,821.165771 
	C433.577515,819.972717 440.078156,819.815308 446.848480,819.159485 
	C446.848480,816.915039 446.950012,814.604309 446.828644,812.305359 
	C446.517670,806.414490 444.197510,803.935608 439.156982,803.936768 
	C434.344330,803.937866 432.428223,806.053345 431.827972,812.028259 
	C431.762207,812.683105 431.696808,813.337952 431.555389,814.750610 
	C428.465637,814.750610 425.382172,814.750549 422.298737,814.750549 
	C419.318329,814.750549 416.337921,814.750610 413.408752,814.750610 
	C411.472717,806.126038 415.433990,799.244934 424.999481,794.834351 
M429.885681,841.692993 
	C429.887329,842.520325 429.856567,843.349121 429.895844,844.174683 
	C430.190125,850.357422 432.223053,853.364258 436.394531,853.815430 
	C441.279785,854.343811 445.139771,851.288757 446.117798,845.310669 
	C446.877411,840.667480 446.835175,835.893127 447.146545,831.218750 
	C435.063477,829.984192 431.156860,832.283325 429.885681,841.692993 
z"/>
<path fill="#FDFAFB" opacity="1.000000" stroke="none" 
	d="
M734.033569,654.156921 
	C735.338684,654.160645 736.172668,654.142822 737.005066,654.171753 
	C755.725830,654.822266 762.033020,661.314209 762.043335,679.959900 
	C762.051697,695.065857 762.044983,710.171814 762.044983,725.533081 
	C756.877808,725.533081 751.261902,725.533081 745.110779,725.533081 
	C744.731995,723.006165 744.332092,720.338684 743.775330,716.624512 
	C738.628967,724.974731 731.600586,728.275024 723.029358,726.940613 
	C719.310730,726.361694 714.955444,724.749268 712.505981,722.107422 
	C705.335327,714.373413 705.645752,704.707642 708.195862,695.248535 
	C710.401978,687.065125 716.891113,683.265991 724.796143,682.048401 
	C730.524902,681.166016 736.363953,680.999878 742.890137,680.452515 
	C742.890137,678.147583 743.027100,675.560364 742.861816,672.992615 
	C742.508423,667.500244 740.089966,665.077393 735.225708,665.090210 
	C730.653015,665.102234 728.525635,667.328552 727.921387,672.751099 
	C727.829590,673.574219 727.783264,674.402344 727.688293,675.567017 
	C721.558105,675.567017 715.474915,675.567017 709.359009,675.567017 
	C707.806824,667.522827 711.517639,659.855652 719.462830,656.858704 
	C723.874451,655.194641 728.843811,655.009094 734.033569,654.156921 
M734.250732,692.387756 
	C727.278931,694.290894 725.282288,697.603271 726.010925,706.367432 
	C726.357910,710.539978 727.382812,714.379578 732.493835,714.968445 
	C736.995300,715.487122 740.903198,712.935364 741.867310,707.937378 
	C742.849792,702.843750 742.886963,697.567810 743.379944,691.888550 
	C739.981628,692.037537 737.540649,692.144531 734.250732,692.387756 
z"/>
<path fill="#FDFAFB" opacity="1.000000" stroke="none" 
	d="
M488.996887,656.897705 
	C495.516724,659.946411 499.411835,664.951294 500.678131,671.411316 
	C502.070343,678.513855 502.479462,685.809082 503.395691,693.698914 
	C490.135803,693.698914 477.928253,693.698914 464.707733,693.698914 
	C465.455414,699.045044 465.852570,703.776733 466.842316,708.380981 
	C467.679840,712.277222 470.158508,715.002319 474.557983,714.776184 
	C478.918488,714.551941 480.914764,711.583740 481.799438,707.707825 
	C482.165253,706.105164 482.243713,704.436829 482.492004,702.491821 
	C488.947540,702.491821 495.341309,702.491821 501.729309,702.491821 
	C502.291870,713.719177 495.628937,723.380493 484.560455,725.736755 
	C478.513092,727.024109 471.968262,727.105469 465.794952,726.414917 
	C455.580322,725.272339 449.276123,718.861694 447.206177,708.868958 
	C444.753204,697.027466 444.608704,685.028503 446.967407,673.156433 
	C449.133179,662.255310 455.465332,656.546570 466.564117,654.762329 
	C474.076355,653.554688 481.488800,653.825012 488.996887,656.897705 
M482.609772,674.326050 
	C480.748199,667.822815 477.280853,665.182373 472.179596,666.383362 
	C466.844727,667.639404 464.119171,674.591309 465.857300,682.695557 
	C471.401733,682.695557 476.969635,682.695557 482.762817,682.695557 
	C482.762817,680.031677 482.762817,677.599426 482.609772,674.326050 
z"/>
<path fill="#FDF9FA" opacity="1.000000" stroke="none" 
	d="
M562.763184,678.941406 
	C560.712646,667.974670 564.655640,660.480957 574.597473,656.804688 
	C584.109741,653.287292 593.816589,652.739624 603.318115,656.895386 
	C611.268982,660.372986 614.870728,667.036194 613.630859,675.469116 
	C607.571106,675.469116 601.475464,675.469116 595.236023,675.469116 
	C595.027039,673.655212 595.338440,671.696899 594.536926,670.459290 
	C593.232178,668.444458 591.340820,665.691040 589.438782,665.469910 
	C587.155151,665.204346 583.572998,666.643311 582.452698,668.494019 
	C581.328735,670.350891 581.638672,674.270325 582.958069,676.113281 
	C584.657349,678.486816 587.889587,679.871765 590.634521,681.364685 
	C595.884033,684.219910 601.469482,686.507690 606.523560,689.659546 
	C613.079956,693.748169 616.409119,699.915466 615.620911,707.827271 
	C614.820801,715.859375 610.408936,721.530823 603.105408,724.524170 
	C592.966980,728.679443 582.515076,728.359558 572.398987,724.510193 
	C564.482971,721.498108 561.130554,713.865295 562.456726,703.591919 
	C568.507263,703.591919 574.598206,703.591919 580.893860,703.591919 
	C581.048035,705.311035 581.135925,706.953369 581.353577,708.578247 
	C581.783447,711.786560 583.096924,714.851318 586.641235,714.786682 
	C589.510437,714.734497 593.647705,714.019531 594.864563,712.102112 
	C596.249573,709.919678 596.011475,705.514709 594.652649,703.105896 
	C593.178650,700.492798 589.771057,698.754333 586.902100,697.194641 
	C582.529419,694.817322 577.805969,693.091064 573.395630,690.775635 
	C568.584229,688.249634 564.545715,684.831848 562.763184,678.941406 
z"/>
<path fill="#FDFAFB" opacity="1.000000" stroke="none" 
	d="
M321.653870,856.574463 
	C312.279327,866.851318 290.771820,869.430725 279.417236,861.903381 
	C273.522675,857.995667 270.949738,850.897095 272.450775,842.388428 
	C278.497681,842.388428 284.578766,842.388428 290.798340,842.388428 
	C290.914581,844.101807 290.979462,845.580322 291.121765,847.051392 
	C291.456177,850.508301 292.871521,853.166687 296.615387,853.800415 
	C300.105560,854.391235 304.010895,854.136230 305.138000,850.515320 
	C305.991760,847.772644 305.638885,843.707764 304.082672,841.409790 
	C302.282532,838.751526 298.701782,837.150879 295.667053,835.511353 
	C290.993561,832.986328 285.975037,831.082642 281.377686,828.437866 
	C274.598389,824.537842 271.169464,818.588318 272.002716,810.566345 
	C272.824341,802.655701 277.687073,797.960022 284.741638,795.443909 
	C293.601044,792.283997 302.675385,791.745361 311.641541,795.046143 
	C320.380737,798.263550 324.563812,805.082764 323.600952,814.212036 
	C317.533661,814.212036 311.438232,814.212036 305.143433,814.212036 
	C304.894745,812.502197 305.123383,810.585754 304.318268,809.334534 
	C303.024658,807.324219 301.199158,804.543274 299.320465,804.308044 
	C297.041840,804.022827 293.290100,805.423767 292.343597,807.230774 
	C291.255707,809.307556 291.670135,813.203918 293.027863,815.252197 
	C294.524841,817.510559 297.753204,818.718628 300.370392,820.116455 
	C305.496918,822.854431 311.007904,824.969238 315.848846,828.125549 
	C326.330078,834.959229 328.370422,845.448730 321.653870,856.574463 
z"/>
<path fill="#FDFAFB" opacity="1.000000" stroke="none" 
	d="
M689.164307,797.038818 
	C699.770630,791.635986 710.446411,791.702271 721.033691,795.320496 
	C730.689392,798.620361 735.683594,807.682617 734.817139,819.088379 
	C728.749573,819.088379 722.646057,819.088379 716.123413,819.088379 
	C715.776184,816.903320 715.479614,814.475220 714.990723,812.086548 
	C714.155090,808.002991 711.720886,805.639893 707.419373,805.470154 
	C703.020691,805.296570 699.197205,807.125122 699.055603,811.531067 
	C698.667297,823.610840 698.797058,835.731079 699.444153,847.796570 
	C699.551270,849.792603 703.006104,852.416077 705.437378,853.285400 
	C708.815735,854.493347 712.218323,852.830139 713.708313,849.390503 
	C715.069275,846.248535 715.661621,842.773621 716.694641,839.081177 
	C722.493713,839.081177 728.746216,839.081177 734.978882,839.081177 
	C736.443298,852.516113 729.342346,862.671082 716.397522,865.014160 
	C711.380249,865.922363 706.082825,866.150330 701.004944,865.685059 
	C688.354736,864.525635 680.841492,858.005981 679.444824,845.332092 
	C678.287598,834.831421 678.699463,824.080261 679.306335,813.491089 
	C679.686584,806.856812 682.984375,801.075134 689.164307,797.038818 
z"/>
<path fill="#FDFAFB" opacity="1.000000" stroke="none" 
	d="
M408.922760,725.762817 
	C404.450836,725.762817 400.460449,725.762817 396.097595,725.762817 
	C389.944031,702.658508 383.826355,679.688965 377.577576,656.227234 
	C384.187775,656.227234 390.535431,656.227234 397.364288,656.227234 
	C400.511414,672.827209 403.691650,689.601929 406.871887,706.376648 
	C407.171326,706.386963 407.470764,706.397339 407.770172,706.407654 
	C411.077179,689.633972 414.384186,672.860352 417.702789,656.027893 
	C424.165588,656.027893 430.246246,656.027893 436.806458,656.027893 
	C431.998596,673.489502 427.288055,690.597107 422.577972,707.704895 
	C421.650330,711.074341 420.730560,714.446106 419.796570,717.813782 
	C417.591125,725.765442 417.588562,725.764709 408.922760,725.762817 
z"/>
<path fill="#FEFCFD" opacity="1.000000" stroke="none" 
	d="
M688.476807,653.817139 
	C691.675232,655.055359 694.859131,655.812805 698.378052,656.649963 
	C698.378052,659.851807 698.378052,663.450562 698.378052,667.578674 
	C695.317322,667.578674 692.262085,667.578674 688.453918,667.578674 
	C688.453918,672.150635 688.453857,676.221741 688.453918,680.292847 
	C688.453979,688.443542 688.426392,696.594299 688.461914,704.744812 
	C688.498718,713.176453 689.148560,713.823303 697.789917,714.089905 
	C697.789917,717.797668 697.789917,721.523865 697.789917,725.732422 
	C692.247131,725.732422 686.580017,726.436218 681.166138,725.565369 
	C673.309937,724.301758 669.011597,718.383850 668.966187,710.250671 
	C668.888367,696.308716 668.944702,682.366028 668.944702,668.092712 
	C666.333923,667.940918 664.072876,667.809448 661.398926,667.653992 
	C661.398926,663.949158 661.398926,660.238220 661.398926,656.066162 
	C663.591858,655.908569 665.975037,655.737305 668.234192,655.575012 
	C668.516174,655.095581 668.858154,654.785400 668.810730,654.555725 
	C667.097534,646.260376 671.222534,642.168579 678.757935,640.113037 
	C681.878052,639.261963 684.767517,637.565735 688.462219,635.946960 
	C688.462219,642.148499 688.462219,647.742493 688.476807,653.817139 
z"/>
<path fill="#FEFDFD" opacity="1.000000" stroke="none" 
	d="
M779.872986,703.970581 
	C779.872925,691.839233 779.872925,680.202515 779.872925,668.130859 
	C777.221436,667.950134 774.831848,667.787231 772.195190,667.607544 
	C772.195190,663.677063 772.195190,659.945007 772.195190,655.958862 
	C774.644409,655.843933 776.914246,655.737366 779.040283,655.637573 
	C779.366638,655.176819 779.751465,654.874451 779.707275,654.660889 
	C777.924316,646.052612 782.589844,642.133118 790.063599,639.947144 
	C793.021545,639.081970 795.778320,637.528687 799.233215,636.024658 
	C799.233215,642.873840 799.233215,648.968567 799.233215,655.591431 
	C802.684265,655.591431 805.762146,655.591431 809.163208,655.591431 
	C809.163208,659.844788 809.163208,663.567078 809.163208,667.772217 
	C805.971802,667.772217 802.894043,667.772217 799.427734,667.772217 
	C799.427734,681.858093 799.219849,695.476257 799.524353,709.083008 
	C799.656433,714.984619 804.863831,713.721436 808.830750,714.150513 
	C808.830750,717.854553 808.830750,721.471252 808.830750,725.719849 
	C802.362915,726.484985 795.811096,727.316589 789.419800,724.828125 
	C783.206604,722.409241 780.004761,717.678955 779.886169,710.960632 
	C779.847961,708.796082 779.875549,706.630371 779.872986,703.970581 
z"/>
<path fill="#FDF8F9" opacity="1.000000" stroke="none" 
	d="
M588.341187,810.734558 
	C580.711731,812.666077 577.965332,815.598328 577.793274,822.958313 
	C577.516846,834.783142 577.656067,846.617676 577.621460,858.448120 
	C577.616211,860.254578 577.620789,862.061035 577.620789,864.202087 
	C571.025696,864.202087 564.793091,864.202087 558.298645,864.202087 
	C558.298645,841.113647 558.298645,818.182861 558.298645,794.887024 
	C564.181152,794.887024 570.081421,794.887024 576.399048,794.887024 
	C576.559998,797.090698 576.723877,799.334717 576.948059,802.404236 
	C581.375977,795.804749 587.037598,792.715759 594.740601,793.125610 
	C594.740601,798.744934 594.740601,804.315430 594.740601,810.064514 
	C592.702026,810.269897 590.733215,810.468201 588.341187,810.734558 
z"/>
<path fill="#FEFBFC" opacity="1.000000" stroke="none" 
	d="
M517.962646,674.000854 
	C517.962646,667.855408 517.962646,662.209717 517.962646,656.173462 
	C524.058228,656.173462 529.947632,656.173462 536.229614,656.173462 
	C536.388367,658.294312 536.555603,660.529907 536.795166,663.730591 
	C541.278687,656.901001 547.044556,654.027161 554.677734,654.247131 
	C554.677734,659.933472 554.677734,665.499268 554.677734,671.053589 
	C538.258118,673.855103 537.477234,674.816345 537.473999,692.156128 
	C537.471924,703.121643 537.473633,714.087097 537.473633,725.404663 
	C530.898987,725.404663 524.701111,725.404663 517.962646,725.404663 
	C517.962646,708.357910 517.962646,691.429260 517.962646,674.000854 
z"/>
<path fill="#FCF7F9" opacity="1.000000" stroke="none" 
	d="
M649.954712,684.000000 
	C649.954712,697.988953 649.954712,711.477905 649.954712,725.369202 
	C643.525085,725.369202 637.295593,725.369202 630.689941,725.369202 
	C630.689941,702.411011 630.689941,679.355164 630.689941,656.031921 
	C636.929260,656.031921 643.202942,656.031921 649.954712,656.031921 
	C649.954712,665.266907 649.954712,674.383484 649.954712,684.000000 
z"/>
<path fill="#FFFEFE" opacity="1.000000" stroke="none" 
	d="
M364.755829,725.927490 
	C358.651245,725.927490 352.546631,725.927490 346.106384,725.927490 
	C346.106384,702.396423 346.106384,679.432007 346.106384,655.815857 
	C352.101379,655.815857 358.172729,655.815857 364.745789,656.355469 
	C365.248047,677.940552 365.261627,698.986084 365.227600,720.031494 
	C365.224426,721.997131 364.920258,723.962158 364.755829,725.927490 
z"/>
<path fill="#FCF7F9" opacity="1.000000" stroke="none" 
	d="
M639.089478,641.230469 
	C635.992188,641.230408 633.366028,641.230408 630.537720,641.230408 
	C630.537720,636.006348 630.537720,631.267395 630.537720,626.208130 
	C636.917603,626.208130 643.124695,626.208130 649.646362,626.208130 
	C649.646362,630.992249 649.646362,635.731750 649.646362,641.230469 
	C646.362915,641.230469 642.961731,641.230469 639.089478,641.230469 
z"/>
<path fill="#FFFEFE" opacity="1.000000" stroke="none" 
	d="
M345.772217,638.918091 
	C345.763672,634.463013 345.763672,630.499390 345.763672,626.223145 
	C352.277924,626.223145 358.480438,626.223145 364.940979,626.223145 
	C364.940979,631.104187 364.940979,635.840515 364.940979,641.136414 
	C358.959778,641.136414 353.043518,641.174744 347.130127,641.061829 
	C346.669983,641.053040 346.230072,639.985229 345.772217,638.918091 
z"/>
<path fill="#FAF0F2" opacity="1.000000" stroke="none" 
	d="
M755.270264,628.976196 
	C755.667114,633.797363 755.667114,638.407532 755.667114,643.334351 
	C750.732788,643.334351 745.855469,643.334351 740.703491,643.334351 
	C740.703491,638.547485 740.703491,633.960449 740.703491,628.765198 
	C745.375366,628.765198 750.124390,628.765198 755.270264,628.976196 
z"/>
<path fill="#FCF5F7" opacity="1.000000" stroke="none" 
	d="
M621.156372,782.351196 
	C618.896179,782.351135 617.090210,782.351135 614.911499,782.351135 
	C614.911499,777.424805 614.911499,772.743103 614.911499,767.701660 
	C619.755676,767.701660 624.598450,767.701660 629.705383,767.701660 
	C629.705383,772.417175 629.705383,776.986816 629.705383,782.351196 
	C627.055420,782.351196 624.333008,782.351196 621.156372,782.351196 
z"/>
<path fill="#FCF5F7" opacity="1.000000" stroke="none" 
	d="
M646.959839,767.349121 
	C649.548035,767.348877 651.674377,767.348877 654.128113,767.348877 
	C654.128113,772.403931 654.128113,777.103760 654.128113,782.080688 
	C649.156616,782.080688 644.272400,782.080688 639.203369,782.080688 
	C639.203369,777.276550 639.203369,772.678589 639.203369,767.349304 
	C641.669800,767.349304 644.083862,767.349304 646.959839,767.349121 
z"/>
<path fill="#FCF5F7" opacity="1.000000" stroke="none" 
	d="
M719.325928,643.629456 
	C717.903259,642.692017 716.205078,641.820496 716.116028,640.807495 
	C715.785278,637.045654 715.984131,633.237305 715.984131,629.046326 
	C721.029114,629.046326 725.864136,629.046326 731.044556,629.046326 
	C731.044556,633.614441 731.044556,638.298218 731.044556,643.630432 
	C727.259705,643.630432 723.524292,643.630432 719.325928,643.629456 
z"/>
<path fill="#A50022" opacity="1.000000" stroke="none" 
	d="
M234.513870,626.144043 
	C234.771622,649.762817 234.683487,673.560852 234.436127,697.745483 
	C233.851654,696.430115 233.063370,694.729675 233.056366,693.026001 
	C232.971130,672.314209 232.976318,651.601807 233.051041,630.889893 
	C233.056534,629.366394 233.778900,627.845459 234.513870,626.144043 
z"/>
<path fill="#A50022" opacity="1.000000" stroke="none" 
	d="
M365.140564,725.805420 
	C364.920258,723.962158 365.224426,721.997131 365.227600,720.031494 
	C365.261627,698.986084 365.248047,677.940552 365.222534,656.423950 
	C365.798187,657.516113 366.912384,659.076355 366.921478,660.643066 
	C367.038910,680.866333 367.029297,701.090637 366.935333,721.314148 
	C366.928558,722.772705 366.016449,724.227051 365.140564,725.805420 
z"/>
<path fill="#A50022" opacity="1.000000" stroke="none" 
	d="
M485.239380,765.331299 
	C485.605194,797.715393 485.625092,830.351013 485.590576,863.447021 
	C485.024048,862.266113 484.070343,860.626221 484.065369,858.983398 
	C483.975433,829.267517 483.987549,799.551392 484.037781,769.835327 
	C484.040192,768.417358 484.595612,767.000244 485.239380,765.331299 
z"/>
<path fill="#A50022" opacity="1.000000" stroke="none" 
	d="
M340.087189,795.360474 
	C340.454376,817.726074 340.496521,840.356750 340.474304,863.446594 
	C339.939575,862.567810 339.065002,861.231567 339.059479,859.891785 
	C338.975220,839.410645 338.994446,818.929077 339.039185,798.447632 
	C339.041290,797.506409 339.510498,796.566223 340.087189,795.360474 
z"/>
<path fill="#A50022" opacity="1.000000" stroke="none" 
	d="
M662.114746,854.737915 
	C661.719116,835.372437 661.603882,815.691101 661.552979,795.550537 
	C662.076843,796.267334 662.932068,797.441772 662.936829,798.619690 
	C663.009094,816.590271 662.975891,834.561401 662.933655,852.532288 
	C662.932190,853.162659 662.582581,853.792236 662.114746,854.737915 
z"/>
<path fill="#A50022" opacity="1.000000" stroke="none" 
	d="
M607.054565,795.362854 
	C607.436157,812.333984 607.493591,829.576599 607.570923,846.819092 
	C607.580566,848.972290 607.695374,851.125000 607.753296,853.769043 
	C607.167480,852.965942 606.094055,851.674316 606.086975,850.376831 
	C605.990417,832.741455 606.034729,815.105225 606.084839,797.469299 
	C606.086609,796.857056 606.509827,796.245911 607.054565,795.362854 
z"/>
<path fill="#A50022" opacity="1.000000" stroke="none" 
	d="
M394.955383,863.638367 
	C394.557251,844.847717 394.475708,825.784302 394.420868,806.229126 
	C394.962799,807.069031 395.918976,808.398071 395.926514,809.732483 
	C396.023071,826.832764 395.993225,843.933716 395.949280,861.034485 
	C395.947296,861.812073 395.507690,862.588562 394.955383,863.638367 
z"/>
<path fill="#A50022" opacity="1.000000" stroke="none" 
	d="
M225.799240,710.951294 
	C222.643295,711.178894 219.168106,711.117676 215.441025,710.744263 
	C218.619415,710.508789 222.049713,710.585632 225.799240,710.951294 
z"/>
<path fill="#A50022" opacity="1.000000" stroke="none" 
	d="
M233.624176,701.090820 
	C233.784607,701.852661 233.648743,702.697266 233.302155,703.790649 
	C233.170258,703.084167 233.249084,702.128906 233.624176,701.090820 
z"/>
<path fill="#A50022" opacity="1.000000" stroke="none" 
	d="
M231.485260,707.119263 
	C231.491699,707.430969 231.246033,707.844971 230.802856,708.407959 
	C230.814606,708.111877 231.023865,707.666626 231.485260,707.119263 
z"/>
<path fill="#A50022" opacity="1.000000" stroke="none" 
	d="
M230.317566,708.567383 
	C230.373489,708.782959 230.142899,709.055908 229.671310,709.452881 
	C229.630569,709.259521 229.830811,708.942139 230.317566,708.567383 
z"/>
<path fill="#A50022" opacity="1.000000" stroke="none" 
	d="
M229.238373,709.397705 
	C229.258606,709.596863 228.985428,709.911133 228.410187,710.326477 
	C228.387085,710.122681 228.666031,709.817810 229.238373,709.397705 
z"/>
<path fill="#AE0F35" opacity="1.000000" stroke="none" 
	d="
M652.969666,231.000000 
	C652.969666,268.564545 652.969666,305.629120 652.969666,343.436035 
	C650.736633,342.411957 649.249573,341.808319 647.833374,341.068909 
	C618.905396,325.965820 589.991150,310.836365 561.054260,295.750305 
	C558.465820,294.400848 556.501282,293.206665 556.522766,289.555450 
	C556.700500,259.409851 556.631042,229.262817 556.659424,199.116226 
	C556.660461,197.987976 556.896667,196.859955 557.058167,195.420547 
	C588.942688,195.420547 620.645691,195.420547 652.969666,195.420547 
	C652.969666,207.286743 652.969666,218.893372 652.969666,231.000000 
z"/>
<path fill="#AE0F35" opacity="1.000000" stroke="none" 
	d="
M364.000000,195.084976 
	C387.109528,195.085022 409.719025,195.085022 432.660156,195.085022 
	C432.775879,197.271118 432.935303,198.888519 432.936157,200.505997 
	C432.951447,229.829590 432.919708,259.153259 432.991943,288.476654 
	C432.999023,291.353302 432.585114,293.343842 429.641693,294.877014 
	C399.803558,310.418732 370.051605,326.125946 340.270325,341.776855 
	C339.416290,342.225677 338.504639,342.564728 337.054443,343.204285 
	C337.054443,293.725067 337.054443,244.751663 337.054443,195.084930 
	C345.943451,195.084930 354.721710,195.084930 364.000000,195.084976 
z"/>
<path fill="#AE1234" opacity="1.000000" stroke="none" 
	d="
M447.931885,253.000000 
	C447.932098,234.015915 448.016815,215.531082 447.854095,197.048431 
	C447.825104,193.753250 448.829620,192.012772 451.797791,190.514175 
	C464.872955,183.912720 477.851318,177.115036 490.767029,170.205795 
	C493.575745,168.703278 495.783051,168.669601 498.615326,170.191391 
	C511.665039,177.203049 524.884827,183.899017 537.904541,190.964584 
	C539.565063,191.865753 541.463013,194.263901 541.474854,195.980774 
	C541.675842,225.120331 541.596619,254.261841 541.568054,283.402924 
	C541.567749,283.722260 541.418945,284.041473 541.094971,285.342407 
	C537.229736,283.265198 533.401611,281.501678 529.961548,279.166351 
	C529.023193,278.529297 528.992615,276.173645 528.985901,274.604858 
	C528.924866,260.284180 529.124634,245.960831 528.927185,231.642700 
	C528.687073,214.231628 515.559082,200.418167 497.716034,198.412582 
	C481.461731,196.585587 465.417786,207.948547 461.519928,224.253372 
	C460.793457,227.292297 460.630005,230.519653 460.605713,233.663147 
	C460.506561,246.484680 460.314789,259.314606 460.687531,272.126007 
	C460.829285,276.997589 459.542572,280.007996 454.871094,281.596161 
	C452.729431,282.324310 450.769104,283.585785 447.931946,285.002045 
	C447.931946,273.984589 447.931946,263.742279 447.931885,253.000000 
M486.784241,177.322540 
	C483.317291,181.329758 482.834381,185.713730 485.596222,190.193115 
	C488.136169,194.312531 492.127075,195.807571 496.794250,194.969177 
	C501.532959,194.117935 504.469208,191.092484 505.370911,186.374527 
	C506.242279,181.815338 504.520752,178.087646 500.675385,175.657166 
	C496.072479,172.747940 491.514893,173.244949 486.784241,177.322540 
z"/>
<path fill="#AD0F35" opacity="1.000000" stroke="none" 
	d="
M363.197327,177.123581 
	C373.027313,171.817627 382.507874,166.624619 392.072754,161.591904 
	C393.920532,160.619659 396.095642,159.731903 398.124146,159.722260 
	C423.575348,159.601196 449.027374,159.646774 474.479187,159.667465 
	C475.067535,159.667938 475.655731,159.875473 477.617950,160.245544 
	C469.383942,164.543213 461.951477,167.790985 455.192993,172.096695 
	C444.812134,178.710144 433.830261,180.741867 421.627075,180.291794 
	C402.688751,179.593338 383.705658,180.108765 364.741547,180.109573 
	C363.148499,180.109634 361.555450,180.109589 359.962372,180.109589 
	C359.888336,179.824432 359.814331,179.539276 359.740295,179.254135 
	C360.785950,178.600220 361.831635,177.946320 363.197327,177.123581 
z"/>
<path fill="#AD0F35" opacity="1.000000" stroke="none" 
	d="
M596.932983,161.773865 
	C607.904480,167.675201 618.528198,173.390625 629.151917,179.106049 
	C629.075500,179.376755 628.999084,179.647476 628.922607,179.918182 
	C627.517700,179.981491 626.112732,180.099304 624.707825,180.099976 
	C601.234375,180.111237 577.760498,180.179489 554.288208,180.014633 
	C551.440430,179.994644 548.356201,179.190796 545.801025,177.912109 
	C534.707458,172.360641 523.769409,166.498474 511.487122,160.075928 
	C514.166138,159.849167 515.383484,159.657150 516.600891,159.656219 
	C540.740234,159.638031 564.879883,159.584488 589.018372,159.726593 
	C591.544189,159.741470 594.063110,160.939087 596.932983,161.773865 
z"/>
<path fill="#AE0F35" opacity="1.000000" stroke="none" 
	d="
M433.350403,451.972382 
	C453.134888,462.732666 472.663177,473.192871 492.280579,483.483215 
	C493.597473,484.173981 495.901367,484.180542 497.218414,483.493530 
	C516.124817,473.631287 534.988220,463.682190 553.692566,453.444519 
	C555.284668,452.573090 556.485168,449.502319 556.495483,447.446381 
	C556.665894,413.449158 556.616272,379.450867 556.615967,345.452789 
	C556.615967,343.474030 556.616028,341.495300 556.616028,338.751434 
	C558.524292,339.592865 559.846924,340.087830 561.089172,340.736755 
	C590.326294,356.008881 619.530823,371.343719 648.820129,386.514954 
	C651.894043,388.107208 653.044067,389.892242 653.030212,393.405396 
	C652.892273,428.402863 652.901428,463.401245 653.019287,498.398865 
	C653.030884,501.840759 652.012878,503.692108 648.867004,505.330200 
	C598.922546,531.335938 549.034729,557.450806 499.212402,583.689697 
	C495.822113,585.475159 493.319824,585.287231 490.048553,583.567261 
	C440.650543,557.594543 391.208221,531.705627 341.694977,505.953369 
	C337.952576,504.006927 336.502838,501.869873 336.526245,497.559601 
	C336.714508,462.895935 336.651611,428.230743 336.593597,393.566132 
	C336.588562,390.559937 336.927460,388.396759 340.110291,386.751251 
	C369.707489,371.449738 399.199951,355.945770 428.731842,340.517853 
	C429.860596,339.928223 431.081116,339.514221 432.931824,338.735016 
	C432.931824,341.122742 432.931824,342.887360 432.931824,344.651978 
	C432.931793,378.483398 432.928925,412.314789 432.939575,446.146210 
	C432.940125,447.974884 433.054077,449.803528 433.350403,451.972382 
z"/>
<path fill="#AE1236" opacity="1.000000" stroke="none" 
	d="
M235.256104,829.103271 
	C234.497894,834.156616 234.188934,838.867981 232.918930,843.304260 
	C231.337341,848.828918 227.607620,851.098938 222.079514,851.084534 
	C216.741135,851.070557 213.263763,848.460632 211.531784,843.515198 
	C210.874954,841.639771 210.103104,839.662415 210.089035,837.726440 
	C209.976669,822.264893 209.929718,806.800659 210.141937,791.341064 
	C210.176956,788.790466 211.311035,786.138184 212.402206,783.744934 
	C214.256912,779.676880 217.789780,778.070984 222.155777,778.053772 
	C226.512375,778.036560 230.324661,779.492371 231.917862,783.647949 
	C233.444550,787.629883 234.696259,791.945679 234.884796,796.167542 
	C235.367447,806.975769 235.191483,817.813416 235.256104,829.103271 
z"/>
<path fill="#AE1437" opacity="1.000000" stroke="none" 
	d="
M513.820496,805.037109 
	C518.401001,805.694946 520.471375,808.777588 520.532043,812.364868 
	C520.725220,823.793762 520.424988,835.233032 520.165466,846.664856 
	C520.133545,848.069885 519.415527,849.596069 518.633484,850.822388 
	C515.878052,855.143250 510.081573,854.882996 507.686920,850.329346 
	C506.927917,848.886169 506.226807,847.203308 506.199829,845.618164 
	C506.013702,834.671204 505.785797,823.715210 506.067139,812.774902 
	C506.175751,808.552734 508.262756,805.025696 513.820496,805.037109 
z"/>
<path fill="#AE0F35" opacity="1.000000" stroke="none" 
	d="
M504.654510,859.292175 
	C504.627075,859.059509 504.826141,858.631958 505.170166,858.445435 
	C505.170441,858.823364 505.025726,858.960327 504.654510,859.292175 
z"/>
<path fill="#AE1437" opacity="1.000000" stroke="none" 
	d="
M429.903198,841.255371 
	C431.156860,832.283325 435.063477,829.984192 447.146545,831.218750 
	C446.835175,835.893127 446.877411,840.667480 446.117798,845.310669 
	C445.139771,851.288757 441.279785,854.343811 436.394531,853.815430 
	C432.223053,853.364258 430.190125,850.357422 429.895844,844.174683 
	C429.856567,843.349121 429.887329,842.520325 429.903198,841.255371 
z"/>
<path fill="#AE1437" opacity="1.000000" stroke="none" 
	d="
M734.675171,692.319702 
	C737.540649,692.144531 739.981628,692.037537 743.379944,691.888550 
	C742.886963,697.567810 742.849792,702.843750 741.867310,707.937378 
	C740.903198,712.935364 736.995300,715.487122 732.493835,714.968445 
	C727.382812,714.379578 726.357910,710.539978 726.010925,706.367432 
	C725.282288,697.603271 727.278931,694.290894 734.675171,692.319702 
z"/>
<path fill="#AF1738" opacity="1.000000" stroke="none" 
	d="
M482.686279,674.746582 
	C482.762817,677.599426 482.762817,680.031677 482.762817,682.695557 
	C476.969635,682.695557 471.401733,682.695557 465.857300,682.695557 
	C464.119171,674.591309 466.844727,667.639404 472.179596,666.383362 
	C477.280853,665.182373 480.748199,667.822815 482.686279,674.746582 
z"/>
<path fill="#FAB801" opacity="1.000000" stroke="none" 
	d="
M487.057678,177.049774 
	C491.514893,173.244949 496.072479,172.747940 500.675385,175.657166 
	C504.520752,178.087646 506.242279,181.815338 505.370911,186.374527 
	C504.469208,191.092484 501.532959,194.117935 496.794250,194.969177 
	C492.127075,195.807571 488.136169,194.312531 485.596222,190.193115 
	C482.834381,185.713730 483.317291,181.329758 487.057678,177.049774 
z"/>
</svg>